<?xml version="1.0" encoding="utf-8"?>
<!-- Generator: Adobe Illustrator 23.0.1, SVG Export Plug-In . SVG Version: 6.00 Build 0)  -->
<svg version="1.1" id="图层_1" xmlns="http://www.w3.org/2000/svg" xmlns:xlink="http://www.w3.org/1999/xlink" x="0px" y="0px"
	 viewBox="0 0 100 100" style="enable-background:new 0 0 100 100;" xml:space="preserve">
<style type="text/css">
	.st0{fill:#80BD01;}
</style>
<g>
	<path class="st0" d="M50,94.3c-1.2,0-2.4-0.3-3.4-0.9L35.7,87c-1.6-0.9-0.8-1.2-0.3-1.4c2.2-0.7,2.6-0.9,4.9-2.2
		c0.2-0.1,0.6-0.1,0.8,0.1l8.3,4.9c0.3,0.2,0.7,0.2,1,0L83,69.6c0.3-0.2,0.5-0.5,0.5-0.9V31.2c0-0.4-0.2-0.7-0.5-0.9L50.5,11.6
		c-0.3-0.2-0.7-0.2-1,0L17.1,30.3c-0.3,0.2-0.5,0.5-0.5,0.9v37.5c0,0.4,0.2,0.7,0.5,0.9l8.9,5.1c4.8,2.4,7.8-0.4,7.8-3.3v-37
		c0-0.5,0.4-0.9,0.9-0.9h4.1c0.5,0,0.9,0.4,0.9,0.9v37c0,6.4-3.5,10.1-9.6,10.1c-1.9,0-3.4,0-7.5-2l-8.5-4.9
		c-2.1-1.2-3.4-3.5-3.4-5.9V31.2c0-2.4,1.3-4.7,3.4-5.9L46.6,6.6c2.1-1.2,4.8-1.2,6.8,0l32.5,18.8c2.1,1.2,3.4,3.5,3.4,5.9v37.5
		c0,2.4-1.3,4.7-3.4,5.9L53.4,93.4C52.4,94,51.2,94.3,50,94.3"/>
	<path class="st0" d="M60,68.5c-14.2,0-17.2-6.5-17.2-12c0-0.5,0.4-0.9,0.9-0.9H48c0.5,0,0.9,0.3,0.9,0.8c0.6,4.3,2.5,6.4,11.1,6.4
		c6.8,0,9.7-1.5,9.7-5.2c0-2.1-0.8-3.6-11.5-4.7c-8.9-0.9-14.4-2.8-14.4-10c0-6.5,5.5-10.5,14.8-10.5c10.4,0,15.5,3.6,16.2,11.4
		c0,0.3-0.1,0.5-0.2,0.7c-0.2,0.2-0.4,0.3-0.7,0.3h-4.2c-0.4,0-0.8-0.3-0.9-0.7c-1-4.5-3.5-5.9-10.2-5.9c-7.5,0-8.3,2.6-8.3,4.6
		c0,2.4,1,3.1,11.1,4.4c10,1.3,14.7,3.2,14.7,10.2C76.2,64.4,70.3,68.5,60,68.5"/>
</g>
</svg>
